<?xml version="1.0" encoding="utf-8"?>
<!-- Generator: Adobe Illustrator 25.4.1, SVG Export Plug-In . SVG Version: 6.00 Build 0)  -->
<svg version="1.1" id="Layer_1" xmlns="http://www.w3.org/2000/svg" xmlns:xlink="http://www.w3.org/1999/xlink" x="0px" y="0px"
	 viewBox="0 0 1366 768" style="enable-background:new 0 0 1366 768;" xml:space="preserve">
<style type="text/css">
	.st0{fill:#FFFFFF;}
	.st1{fill:#FF0000;}
	.st2{fill:none;}
	.st3{font-family:'Aclonica-Regular';}
	.st4{font-size:19px;}
</style>
<g>
	<rect x="500" y="298" class="st0" width="146" height="57"/>
	<path d="M640,304v45H506v-45H640 M652,292H494v69h158V292L652,292z"/>
</g>
<g>
	<path class="st0" d="M527.9,344c-9.3,0-16.9-7.6-16.9-16.9s7.6-16.9,16.9-16.9h90.2c9.3,0,16.9,7.6,16.9,16.9s-7.6,16.9-16.9,16.9
		H527.9z"/>
	<g>
		<path class="st1" d="M618.1,315.2c6.6,0,11.9,5.3,11.9,11.9s-5.3,11.9-11.9,11.9h-90.2c-6.6,0-11.9-5.3-11.9-11.9
			c0-6.6,5.3-11.9,11.9-11.9H618.1 M618.1,305.2h-90.2c-12.1,0-21.9,9.8-21.9,21.9v0c0,12.1,9.8,21.9,21.9,21.9h90.2
			c12.1,0,21.9-9.8,21.9-21.9v0C640,315,630.2,305.2,618.1,305.2L618.1,305.2z"/>
	</g>
</g>
<rect x="516" y="320" class="st2" width="115" height="17"/>
<text transform="matrix(1 0 0 1 517.957 334.6582)" class="st3 st4">You R here</text>
</svg>
